<svg xmlns="http://www.w3.org/2000/svg" fill="#f3ff79" viewBox="0 0 128 160" x="0px" y="0px"><title>19</title><g data-name="19"><path d="M115.10742,103.58887H12.89258a1.50039,1.50039,0,0,1-1.5-1.5V25.91113a1.50039,1.50039,0,0,1,1.5-1.5H115.10742a1.50039,1.50039,0,0,1,1.5,1.5v76.17774A1.50039,1.50039,0,0,1,115.10742,103.58887Zm-100.71484-3h99.21484V27.41113H14.39258Zm92.71484-68.17871H77a1.50062,1.50062,0,0,0-1.06055.43945l-2.56054,2.56055H54.62109l-2.56054-2.56055A1.50062,1.50062,0,0,0,51,32.41016H20.89258a1.50038,1.50038,0,0,0-1.5,1.5V94.08984a1.50038,1.50038,0,0,0,1.5,1.5h86.21484a1.50038,1.50038,0,0,0,1.5-1.5V33.91016A1.50038,1.50038,0,0,0,107.10742,32.41016ZM44,83.71387H34.78613a1.50039,1.50039,0,0,1-1.5-1.5V74a1.5,1.5,0,0,1,3,0v6.71387H44a1.5,1.5,0,0,1,0,3Zm0-36.42774H36.28613V54a1.5,1.5,0,0,1-3,0V45.78613a1.50039,1.50039,0,0,1,1.5-1.5H44a1.5,1.5,0,0,1,0,3ZM64,81.92285a13.51476,13.51476,0,0,1-13.5-13.5,1.5,1.5,0,0,1,3,0,10.5,10.5,0,0,0,21,0,1.5,1.5,0,1,1,3,0A13.51476,13.51476,0,0,1,64,81.92285Zm0-22.8457a.501.501,0,0,0-.5.5v8.8457a1.5,1.5,0,0,1-3,0v-8.8457a3.5,3.5,0,0,1,7,0v8.8457a1.5,1.5,0,0,1-3,0v-8.8457A.501.501,0,0,0,64,59.07715Zm0-5a5.50685,5.50685,0,0,0-5.5,5.5v8.8457a5.5,5.5,0,0,0,11,0v-8.8457a1.5,1.5,0,0,1,3,0v8.8457a8.5,8.5,0,0,1-17,0v-8.8457a8.51014,8.51014,0,0,1,8.5-8.5,1.5,1.5,0,0,1,0,3Zm12,7a1.50039,1.50039,0,0,1-1.5-1.5,10.5,10.5,0,0,0-21,0,1.5,1.5,0,0,1-3,0,13.5,13.5,0,0,1,27,0A1.50039,1.50039,0,0,1,76,61.07715ZM94.71387,82.21387a1.50039,1.50039,0,0,1-1.5,1.5H84a1.5,1.5,0,0,1,0-3h7.71387V74a1.5,1.5,0,0,1,3,0Zm0-28.21387a1.5,1.5,0,0,1-3,0V47.28613H84a1.5,1.5,0,0,1,0-3h9.21387a1.50039,1.50039,0,0,1,1.5,1.5Z"/></g></svg>