<svg xmlns="http://www.w3.org/2000/svg" fill="#f3ff79" xmlns:xlink="http://www.w3.org/1999/xlink" version="1.1" x="0px" y="0px" viewBox="0 0 134 167.5" style="enable-background:new 0 0 134 134;" xml:space="preserve"><g><g><path d="M78.6,92.8v-4.2l6.1-2.9l3.4-11.7l-2.5-0.7l-3,10.6l-4,1.9v-1.7H55.1v1.5L51.4,84l-3-10.6l-2.5,0.7l3.4,11.7l5.8,2.7v4.3    h-6.3l-6.7,8.5l2,1.6l5.9-7.5h5v1.1c0,1.9,0.5,3.8,1.3,5.4l-6.3,4.5v11h2.6v-9.7l5.2-3.7c2.2,2.6,5.4,4.2,9,4.2    c3.7,0,7-1.7,9.2-4.4l5.4,3.9v9.7H84v-11l-6.6-4.7c0.8-1.6,1.2-3.3,1.2-5.2v-1.1H84l5.9,7.5l2-1.6l-6.7-8.5H78.6z"/></g><g><path d="M77.4,66.1L76,64c-1.7,1.1-4.1,3.1-5.7,6.3c-0.6,1.2-1,2.4-1.3,3.7c-0.6-0.2-1.3-0.3-2-0.3c-0.7,0-1.4,0.1-2,0.3    c-0.3-1.3-0.7-2.5-1.3-3.7c-1.6-3.2-4-5.2-5.7-6.3l-1.4,2.2c1.4,0.9,3.4,2.6,4.8,5.3c0.6,1.2,1,2.4,1.2,3.7    c-2.1,1.4-3.4,3.8-3.4,6.5h15.7c0-2.7-1.4-5.1-3.4-6.5c0.2-1.3,0.6-2.5,1.2-3.7C74,68.7,76,67.1,77.4,66.1z"/></g><g><g><g><path d="M108,20.1c-4-4-7.5-6-10.8-7.2c-3.5,3-6.9,5.9-10.4,8.9c1,1.2,2,2.4,3,3.6c-3.2,3.5-6.5,7.1-9.8,10.6      c0.7-2.3,1.5-4.5,2.2-6.8c-1.3-1.1-2.7-2.3-4-3.4c3.1-4.8,6.2-9.5,9.3-14.3C81.3,11.3,75,11,67,3c-5.5,5.5-10.1,7.3-14.5,8      c-0.9,1.7-1.9,3.4-2.8,5.2c0.7,0.9,1.3,1.7,2,2.6c-2.3,2.7-4.5,5.5-6.8,8.2c0.6-1.4,2.3-5.5,1.2-10.6c-0.4-2-1.2-3.6-2-4.8      C38.6,12,33,13.1,26,20.1v30.8c0,7.8,1.8,15.3,5.1,22C38.3,59.7,51.9,51.6,67,51.6c15.1,0,28.7,8.1,35.9,21.2      c3.3-6.7,5.1-14.2,5.1-22V20.1z"/></g></g><g><path d="M101.4,75.7C95.1,63.1,82.1,54.3,67,54.3s-28.1,8.7-34.4,21.4c-2.5,5.1-4,10.9-4,17c0,21.1,17.2,38.3,38.3,38.3     s38.3-17.2,38.3-38.3C105.3,86.6,103.9,80.8,101.4,75.7z M67,128.7c-19.9,0-36-16.2-36-36c0-5.2,1.1-10.1,3.1-14.6     C39.7,65.5,52.3,56.6,67,56.6c14.7,0,27.3,8.8,32.9,21.4c2,4.5,3.1,9.4,3.1,14.6C103,112.5,86.9,128.7,67,128.7z"/></g></g></g></svg>