<?xml version="1.0" standalone="no"?>
<!DOCTYPE svg PUBLIC "-//W3C//DTD SVG 20010904//EN"
 "http://www.w3.org/TR/2001/REC-SVG-20010904/DTD/svg10.dtd">
<svg version="1.0" xmlns="http://www.w3.org/2000/svg"
 width="475.000000pt" height="449.000000pt" viewBox="0 0 475.000000 449.000000"
 preserveAspectRatio="xMidYMid meet">

<g transform="translate(0.000000,449.000000) scale(0.100000,-0.100000)"
fill="#000000" stroke="none">
<path d="M1927 4082 l-217 -408 0 -160 0 -161 215 -224 214 -224 1 -200 0
-201 117 -63 118 -64 115 61 115 61 5 204 5 205 213 220 212 221 0 166 0 166
-214 402 -214 402 -234 3 -235 2 -216 -408z m499 6 c37 -26 44 -37 44 -65 l0
-34 -46 35 -47 36 -40 -30 c-50 -37 -57 -37 -57 -2 1 20 12 35 43 59 23 17 46
32 50 32 5 1 29 -13 53 -31z m-1 -110 c37 -27 44 -39 45 -66 l0 -34 -42 31
c-23 17 -46 31 -52 31 -5 0 -23 -10 -40 -23 -54 -40 -56 -41 -56 -8 0 24 9 37
46 66 26 19 49 35 51 35 2 0 24 -15 48 -32z m13 -125 c26 -22 33 -34 30 -56
l-3 -28 -40 30 c-22 17 -44 31 -49 31 -4 0 -25 -13 -46 -30 -21 -16 -41 -30
-44 -30 -3 0 -6 13 -6 29 0 23 10 36 47 64 52 38 55 38 111 -10z m-10 -104
c33 -24 42 -37 42 -60 0 -16 -3 -29 -6 -29 -3 0 -24 14 -46 31 l-39 32 -44
-32 c-24 -17 -46 -31 -49 -31 -3 0 -6 13 -6 28 0 22 10 36 43 60 23 17 47 31
53 32 5 0 29 -14 52 -31z m-2 -111 c34 -24 44 -38 44 -60 0 -35 -5 -35 -54 2
l-39 30 -40 -30 c-51 -37 -57 -37 -57 -2 0 22 10 35 43 59 23 17 46 32 50 32
5 1 29 -13 53 -31z m-1 -110 c37 -27 44 -39 45 -66 l0 -34 -47 35 -47 34 -48
-34 -48 -35 0 34 c1 28 8 38 48 65 26 18 48 33 50 33 2 0 23 -15 47 -32z"/>
<path d="M183 3732 l-72 -158 0 -529 0 -528 74 -133 75 -132 0 -264 0 -263
263 -319 262 -320 3 167 2 166 -40 81 -40 80 0 157 0 158 -45 64 -45 65 0 304
0 305 -177 291 -178 290 -5 338 -5 338 -72 -158z"/>
<path d="M4490 3550 l0 -333 -181 -295 -181 -295 3 -301 3 -301 -47 -66 -47
-67 0 -156 0 -156 -40 -86 -40 -87 0 -158 c0 -88 3 -159 8 -158 4 0 125 145
270 322 l263 322 -3 260 -3 260 73 129 72 128 0 532 0 531 -66 145 c-36 80
-70 149 -75 155 -5 5 -9 -123 -9 -325z"/>
<path d="M1547 2982 l6 -378 -96 -111 -97 -112 0 -220 0 -220 90 -53 89 -53 3
-324 3 -324 65 77 66 77 53 282 c29 155 57 289 62 298 4 9 60 56 123 105 l116
89 0 385 0 385 -238 238 c-130 130 -240 237 -244 237 -3 0 -4 -170 -1 -378z"/>
<path d="M2957 3122 l-237 -237 0 -382 0 -383 121 -95 c66 -53 122 -102 124
-108 3 -7 29 -139 59 -295 l55 -282 63 -76 63 -75 5 322 5 323 85 51 85 51 2
225 3 224 -94 108 -94 108 5 380 c4 225 2 379 -3 379 -5 0 -116 -107 -247
-238z"/>
<path d="M1328 2716 l-128 -134 0 -104 0 -103 135 135 135 135 0 102 c0 57 -3
103 -7 103 -5 0 -65 -61 -135 -134z"/>
<path d="M3290 2749 l0 -107 130 -133 129 -134 0 105 0 105 -129 135 -129 135
-1 -106z"/>
<path d="M2148 2228 l-3 -143 -140 -97 c-77 -54 -143 -106 -147 -115 -4 -10
-19 -79 -33 -153 -15 -74 -29 -143 -31 -153 -5 -14 13 -9 85 28 l91 45 0 -237
1 -238 94 -100 94 -100 1 261 0 262 109 20 c96 18 115 19 177 7 38 -7 86 -15
107 -19 l37 -7 0 -262 1 -262 94 98 95 99 0 239 0 239 90 -45 c50 -25 90 -42
89 -38 0 5 -14 80 -32 168 l-32 160 -142 99 -143 100 0 143 c0 79 -2 143 -5
143 -3 0 -56 -25 -118 -56 l-113 -56 -112 56 -111 56 -3 -142z"/>
<path d="M822 2295 l-32 -27 0 -148 0 -148 60 -38 60 -39 0 -175 0 -175 80
-102 80 -101 0 -193 0 -192 64 -71 c119 -131 317 -341 327 -344 5 -2 9 233 9
601 l0 605 -105 67 -105 67 0 214 0 214 -107 0 c-60 0 -151 3 -203 6 -93 7
-96 6 -128 -21z"/>
<path d="M3638 2313 l-148 -4 -2 -216 -3 -216 -97 -61 -98 -61 0 -610 0 -610
39 40 c21 22 109 116 195 208 l156 168 0 193 0 193 80 101 80 100 0 178 0 179
60 37 60 37 0 148 c0 146 0 147 -27 175 -24 25 -33 28 -87 26 -34 -1 -127 -4
-208 -5z"/>
<path d="M53 2209 l-53 -40 0 -382 0 -382 150 -162 150 -162 0 -83 0 -84 158
-124 c86 -69 254 -201 372 -295 502 -398 625 -495 632 -495 5 0 8 96 8 213 l0
212 -245 245 -245 245 -1 185 c0 246 -5 270 -60 326 l-44 45 -5 -336 -5 -337
-378 444 -377 443 2 283 c2 155 1 282 -2 282 -3 0 -29 -18 -57 -41z"/>
<path d="M4640 1967 l0 -285 -356 -418 c-196 -231 -367 -430 -380 -444 l-24
-25 2 338 c2 185 0 337 -3 337 -4 0 -27 -24 -53 -54 l-45 -54 -7 -223 -6 -224
-239 -240 -239 -241 2 -218 3 -218 578 457 577 458 0 84 0 84 150 159 150 160
0 387 0 388 -42 30 c-23 17 -48 34 -55 38 -11 7 -13 -44 -13 -276z"/>
<path d="M1848 1473 l-57 -26 -12 -70 c-13 -70 -14 -73 -126 -203 l-113 -133
0 -255 0 -256 158 0 157 0 118 101 117 102 0 110 0 110 -85 86 -85 87 0 187
c0 103 -3 187 -7 186 -5 0 -34 -12 -65 -26z"/>
<path d="M2840 1313 l0 -186 -85 -86 -85 -87 0 -115 1 -114 113 -98 114 -97
156 0 156 0 0 258 0 257 -110 127 c-106 123 -111 130 -122 190 -6 35 -14 69
-18 77 -4 8 -33 24 -64 37 l-56 23 0 -186z"/>
</g>
</svg>
