<svg xmlns="http://www.w3.org/2000/svg" fill="#f3ff79" viewBox="0 0 100 125" x="0px" y="0px"><g data-name="Layer 2"><path d="M89.669,45.652A4.823,4.823,0,0,0,85.1,48.983H74.3V39.822h3.532a4.831,4.831,0,1,0,0-3H72.8a1.5,1.5,0,0,0-1.5,1.5V48.983H65.732V40.992a1.5,1.5,0,0,0-.722-1.283l-7.39-4.481,2.422-2.422a1.5,1.5,0,0,0-2.122-2.121l-2.941,2.942L51.5,31.517V24.425a4.831,4.831,0,1,0-3,0v7.182L36,39.189l-4.065-4.064V27.6a4.831,4.831,0,1,0-3,0v6.649H22.092a4.831,4.831,0,1,0,0,3H29.81L34.268,41.7v6.254H23.351a1.5,1.5,0,0,0,0,3H25.7v9.162H22.167a4.831,4.831,0,1,0,0,3H27.2a1.5,1.5,0,0,0,1.5-1.5V50.957h5.569v7.991a1.5,1.5,0,0,0,.722,1.283l7.39,4.481-8.521,8.52h-6.79a4.831,4.831,0,1,0,0,3H34.48a1.5,1.5,0,0,0,1.061-.439l9.48-9.48,3.479,2.11v7.152a4.831,4.831,0,1,0,3,0V68.33l3.79-2.3a1.5,1.5,0,0,0-1.558-2.565l-3.809,2.314L37.268,58.1V41.927l12.806-7.766,12.658,7.676V58.011l-4.718,2.862a1.5,1.5,0,0,0,1.556,2.565L64,60.749l4.067,4.067v7.526a4.831,4.831,0,1,0,3,0V65.694h6.839a4.832,4.832,0,1,0,0-3H70.19l-4.459-4.458V51.983H85.1a4.821,4.821,0,1,0,4.569-6.331ZM82.4,36.491a1.831,1.831,0,1,1-1.831,1.831A1.833,1.833,0,0,1,82.4,36.491ZM30.431,21.2A1.831,1.831,0,1,1,28.6,23.029,1.833,1.833,0,0,1,30.431,21.2ZM17.523,37.577a1.831,1.831,0,1,1,1.831-1.831A1.833,1.833,0,0,1,17.523,37.577ZM17.6,63.449a1.831,1.831,0,1,1,1.831-1.831A1.833,1.833,0,0,1,17.6,63.449Zm4.9,13.114a1.831,1.831,0,1,1,1.832-1.831A1.833,1.833,0,0,1,22.5,76.563ZM50,81.975a1.829,1.829,0,0,1-.3-3.632,1.506,1.506,0,0,0,.608,0,1.829,1.829,0,0,1-.3,3.632Zm0-63.95a1.829,1.829,0,0,1,.3,3.632,1.506,1.506,0,0,0-.608,0,1.829,1.829,0,0,1,.3-3.632ZM69.569,78.742A1.831,1.831,0,1,1,71.4,76.911,1.833,1.833,0,0,1,69.569,78.742ZM82.477,62.364a1.831,1.831,0,1,1-1.831,1.83A1.832,1.832,0,0,1,82.477,62.364Zm7.192-10.05A1.831,1.831,0,1,1,91.5,50.483,1.833,1.833,0,0,1,89.669,52.314Z"/><path d="M62.6,29.625a1.5,1.5,0,0,0,1.061-.439l2.48-2.48H72.93a4.832,4.832,0,1,0,0-3h-7.41a1.5,1.5,0,0,0-1.061.439l-2.919,2.92a1.5,1.5,0,0,0,1.06,2.56Zm14.9-6.249a1.832,1.832,0,1,1-1.83,1.843v-.025A1.832,1.832,0,0,1,77.5,23.376Z"/><path d="M14.9,50.956h3.451a1.5,1.5,0,0,0,0-3H14.9a4.831,4.831,0,1,0,0,3Zm-4.569.332a1.832,1.832,0,1,1,1.831-1.837v.01A1.834,1.834,0,0,1,10.331,51.288Z"/></g></svg>