<svg xmlns="http://www.w3.org/2000/svg" fill="#f3ff79" viewBox="0 0 100 125" x="0px" y="0px"><g data-name="Layer 2"><path d="M87.471,85.143H82.614V47.107a5.135,5.135,0,0,0-5.129-5.128H50l-.033,0H32.521a1.5,1.5,0,0,0,0,3H50c.012,0,.023,0,.034,0H77.485a2.131,2.131,0,0,1,2.129,2.128V85.143H77.745V48.348a1.5,1.5,0,0,0-1.5-1.5H23.755a1.5,1.5,0,0,0-1.5,1.5v36.8H20.391V47.112a2.127,2.127,0,0,1,2.119-2.13h5.011a1.5,1.5,0,0,0,0-3H22.51a5.131,5.131,0,0,0-5.119,5.13V85.144H12.532a1.5,1.5,0,0,0-1.5,1.5v1.872A5.989,5.989,0,0,0,17.013,94.5H49.952c.017,0,.032,0,.048,0H61.451a1.5,1.5,0,1,0,0-3h-11.4c-.017,0-.032,0-.048,0H17.013a2.985,2.985,0,0,1-2.981-2.982v-.372H85.971v.37A2.988,2.988,0,0,1,82.99,91.5H66.451a1.5,1.5,0,0,0,0,3H82.99a5.992,5.992,0,0,0,5.981-5.989v-1.87A1.5,1.5,0,0,0,87.471,85.143ZM25.255,49.848h49.49v35.3H25.255Z"/><path d="M65.05,22.692a1.5,1.5,0,0,0,1.061-.439l2.181-2.181h6.7a5.134,5.134,0,1,0,0-3H67.67a1.5,1.5,0,0,0-1.06.44l-2.62,2.62a1.5,1.5,0,0,0,1.06,2.56ZM79.878,16.44a2.134,2.134,0,1,1-2.133,2.134A2.136,2.136,0,0,1,79.878,16.44Z"/><path d="M58.55,39.862a1.5,1.5,0,0,0,1.5-1.5V28.324l2.531-2.531a1.5,1.5,0,0,0-2.121-2.121l-2.97,2.97a1.5,1.5,0,0,0-.44,1.061V38.362A1.5,1.5,0,0,0,58.55,39.862Z"/><path d="M48.5,15.515V38.367a1.5,1.5,0,0,0,3,0V15.515a5.134,5.134,0,1,0-3,0ZM50,8.5a2.134,2.134,0,1,1-2.134,2.133A2.136,2.136,0,0,1,50,8.5Z"/><path d="M87.146,24.815a5.123,5.123,0,0,0-4.884,3.634H78.046a1.5,1.5,0,0,0-1.06.44l-5.057,5.056H63.951a1.5,1.5,0,0,0,0,3h8.6a1.5,1.5,0,0,0,1.061-.44l5.056-5.056h3.595a5.123,5.123,0,1,0,4.884-6.634Zm0,7.268a2.134,2.134,0,1,1,2.133-2.134A2.137,2.137,0,0,1,87.146,32.083Z"/><path d="M20.122,23.707a5.122,5.122,0,0,0,4.883-3.633h6.7l8.25,8.25V38.367a1.5,1.5,0,0,0,3,0V27.7a1.5,1.5,0,0,0-.439-1.06l-9.13-9.13a1.5,1.5,0,0,0-1.06-.439h-7.32a5.122,5.122,0,1,0-4.883,6.633Zm0-7.267a2.134,2.134,0,1,1-2.134,2.134A2.136,2.136,0,0,1,20.122,16.44Z"/><path d="M17.738,31.449h3.595l5.056,5.056a1.5,1.5,0,0,0,1.061.44h8.6a1.5,1.5,0,0,0,0-3H28.071l-5.057-5.056a1.5,1.5,0,0,0-1.06-.44H17.738a5.134,5.134,0,1,0,0,3Zm-7.017-1.5a2.134,2.134,0,1,1,2.133,2.134A2.136,2.136,0,0,1,10.721,29.949Z"/><path d="M52.605,68.362a1.488,1.488,0,0,0,.968-.355l2.267-1.918A1.5,1.5,0,1,0,53.9,63.8l-2.267,1.918a1.5,1.5,0,0,0,.969,2.645Z"/><path d="M50,79.2h3.711a1.5,1.5,0,0,0,1.5-1.5V74.888l6.6-5.04a1.5,1.5,0,0,0,.59-1.192V64.712a1.5,1.5,0,0,0-.336-.946l-6.031-7.423a1.5,1.5,0,0,0-1.164-.554H45.128a1.5,1.5,0,0,0-1.164.554l-6.031,7.423a1.5,1.5,0,0,0-.336.946v3.944a1.5,1.5,0,0,0,.59,1.192l6.6,5.04V77.7a1.5,1.5,0,0,0,1.5,1.5ZM40.6,67.914V65.245l5.245-6.456h8.316L59.4,65.245v2.669l-6.6,5.04a1.5,1.5,0,0,0-.59,1.192V76.2H47.789V74.146a1.5,1.5,0,0,0-.59-1.192Z"/><path d="M48.541,67.831a1.5,1.5,0,0,0-.177-2.114L46.1,63.8a1.5,1.5,0,1,0-1.937,2.29l2.267,1.918a1.5,1.5,0,0,0,2.114-.176Z"/><path d="M39.1,75.633H28.417a1.5,1.5,0,0,0,0,3H39.1a1.5,1.5,0,0,0,0-3Z"/><path d="M36.1,80.193h-7.68a1.5,1.5,0,0,0,0,3H36.1a1.5,1.5,0,0,0,0-3Z"/><path d="M71.583,75.633H60.9a1.5,1.5,0,0,0,0,3h10.68a1.5,1.5,0,0,0,0-3Z"/><path d="M71.583,80.193H63.9a1.5,1.5,0,0,0,0,3h7.68a1.5,1.5,0,0,0,0-3Z"/><path d="M28.417,54.8H39.1a1.5,1.5,0,0,0,0-3H28.417a1.5,1.5,0,0,0,0,3Z"/><path d="M28.417,59.359H36.1a1.5,1.5,0,0,0,0-3h-7.68a1.5,1.5,0,0,0,0,3Z"/><path d="M60.9,54.8h10.68a1.5,1.5,0,0,0,0-3H60.9a1.5,1.5,0,0,0,0,3Z"/><path d="M71.583,56.359H63.9a1.5,1.5,0,0,0,0,3h7.68a1.5,1.5,0,0,0,0-3Z"/></g></svg>