<?xml version="1.0" standalone="no"?>
<!DOCTYPE svg PUBLIC "-//W3C//DTD SVG 20010904//EN"
 "http://www.w3.org/TR/2001/REC-SVG-20010904/DTD/svg10.dtd">
<svg version="1.0" xmlns="http://www.w3.org/2000/svg"
 width="200.000000pt" height="200.000000pt" viewBox="0 0 200.000000 200.000000"
 preserveAspectRatio="xMidYMid meet">

<g transform="translate(0.000000,200.000000) scale(0.100000,-0.100000)"
fill="#f3ff79" stroke="none">
<path d="M155 1907 c-4 -9 9 -43 30 -81 39 -70 49 -81 65 -71 11 7 -48 124
-76 154 -11 13 -14 12 -19 -2z"/>
<path d="M207 1903 c-7 -12 76 -153 91 -153 20 0 14 18 -28 91 -39 65 -53 79
-63 62z"/>
<path d="M260 1904 c0 -4 18 -40 41 -80 38 -70 59 -91 59 -60 0 23 -74 146
-87 146 -7 0 -13 -3 -13 -6z"/>
<path d="M320 1900 c0 -12 69 -138 80 -145 23 -14 15 18 -21 83 -36 65 -59 89
-59 62z"/>
<path d="M380 1899 c0 -15 67 -136 80 -144 19 -12 10 17 -26 81 -36 64 -54 85
-54 63z"/>
<path d="M430 1905 c0 -18 77 -145 88 -145 12 0 -9 44 -62 133 -10 16 -26 23
-26 12z"/>
<path d="M490 1903 c0 -7 16 -40 36 -75 43 -74 43 -73 49 -66 3 3 -11 34 -30
69 -40 70 -55 90 -55 72z"/>
<path d="M147 1722 c-4 -6 762 -1414 778 -1430 3 -3 12 1 19 9 17 18 767 1385
773 1410 5 19 -15 19 -780 19 -432 0 -788 -3 -790 -8z m1523 -29 c0 -18 -734
-1343 -741 -1336 -4 4 -157 280 -339 613 -182 333 -347 633 -366 668 l-35 62
741 0 c407 0 740 -3 740 -7z"/>
<path d="M290 1635 c0 -13 155 -285 162 -285 14 0 9 14 -60 140 l-68 125 173
3 c104 1 173 6 173 12 0 6 -73 10 -190 10 -104 0 -190 -2 -190 -5z"/>
<path d="M920 1630 c0 -6 115 -10 325 -10 210 0 325 4 325 10 0 6 -115 10
-325 10 -210 0 -325 -4 -325 -10z"/>
<path d="M510 1531 c0 -6 5 -13 10 -16 6 -3 10 1 10 9 0 9 -4 16 -10 16 -5 0
-10 -4 -10 -9z"/>
<path d="M600 1530 c0 -5 5 -10 10 -10 6 0 10 5 10 10 0 6 -4 10 -10 10 -5 0
-10 -4 -10 -10z"/>
<path d="M685 1530 c-3 -5 1 -10 10 -10 9 0 13 5 10 10 -3 6 -8 10 -10 10 -2
0 -7 -4 -10 -10z"/>
<path d="M770 1530 c0 -5 5 -10 10 -10 6 0 10 5 10 10 0 6 -4 10 -10 10 -5 0
-10 -4 -10 -10z"/>
<path d="M860 1530 c0 -5 5 -10 10 -10 6 0 10 5 10 10 0 6 -4 10 -10 10 -5 0
-10 -4 -10 -10z"/>
<path d="M940 1530 c0 -5 7 -10 15 -10 8 0 15 5 15 10 0 6 -7 10 -15 10 -8 0
-15 -4 -15 -10z"/>
<path d="M582 1366 c7 -31 344 -635 352 -633 9 3 355 625 356 640 0 4 -160 7
-356 7 -301 0 -355 -2 -352 -14z m328 -11 c0 -12 -143 -265 -149 -265 -6 0
-138 231 -149 261 -2 5 64 9 147 9 83 0 151 -2 151 -5z m317 -57 c-19 -35 -54
-98 -77 -141 -23 -43 -44 -77 -45 -75 -2 2 -37 65 -78 141 l-75 137 155 0 155
0 -35 -62z m-209 -130 l43 -78 -127 0 c-69 0 -124 3 -122 8 2 4 29 56 62 115
l58 109 22 -39 c12 -21 41 -73 64 -115z m39 -180 c-19 -35 -54 -98 -77 -141
-23 -43 -46 -75 -51 -70 -9 9 -149 261 -149 268 0 3 70 5 156 5 l156 0 -35
-62z"/>
<path d="M610 1059 c0 -20 315 -589 324 -586 13 4 327 579 320 586 -9 9 -25
-17 -175 -291 -126 -230 -144 -258 -156 -243 -7 10 -76 134 -154 277 -133 243
-159 286 -159 257z"/>
<path d="M1615 1354 c-121 -207 -221 -382 -223 -390 -2 -8 0 -14 5 -14 7 0
107 168 436 732 19 32 24 48 15 48 -7 0 -112 -170 -233 -376z"/>
<path d="M1697 1343 c-4 -3 -7 -13 -7 -21 0 -12 3 -12 15 -2 8 7 15 16 15 21
0 11 -14 12 -23 2z"/>
<path d="M1651 1266 c-8 -9 -11 -19 -7 -23 9 -9 29 13 24 27 -2 8 -8 7 -17 -4z"/>
<path d="M1605 1189 c-4 -6 -5 -13 -2 -16 7 -7 27 6 27 18 0 12 -17 12 -25 -2z"/>
<path d="M1563 1115 c-8 -22 6 -33 17 -15 13 20 12 30 0 30 -6 0 -13 -7 -17
-15z"/>
<path d="M1516 1034 c-4 -10 -1 -14 6 -12 15 5 23 28 10 28 -5 0 -13 -7 -16
-16z"/>
<path d="M422 1011 c15 -44 505 -920 513 -918 11 4 195 336 195 352 -1 18 -28
-26 -111 -177 -44 -81 -84 -146 -88 -144 -4 3 -117 206 -252 451 -134 245
-248 445 -252 445 -5 0 -7 -4 -5 -9z"/>
<path d="M1473 965 c-8 -22 6 -33 17 -15 13 20 12 30 0 30 -6 0 -13 -7 -17
-15z"/>
<path d="M1436 903 c-9 -9 -7 -33 3 -33 12 0 22 28 12 34 -5 3 -11 3 -15 -1z"/>
<path d="M1386 814 c-4 -9 -4 -19 -2 -21 8 -8 26 8 26 23 0 19 -16 18 -24 -2z"/>
<path d="M1346 744 c-8 -21 -8 -24 3 -24 12 0 22 28 12 35 -5 3 -12 -2 -15
-11z"/>
<path d="M1297 666 c-6 -16 2 -28 14 -20 12 7 11 34 0 34 -5 0 -11 -6 -14 -14z"/>
<path d="M1256 594 c-4 -9 -4 -19 -2 -21 8 -8 26 8 26 23 0 19 -16 18 -24 -2z"/>
</g>
</svg>
